<svg width="510" height="379" viewBox="0 0 510 379" fill="none" xmlns="http://www.w3.org/2000/svg">
<g clip-path="url(#clip0_520_2476)">
<path d="M194.717 19.3589C256.356 9.56965 290.951 55.9613 290.951 99.444V312.937L98.4822 372.937V159.445C98.4822 115.962 116.815 31.7284 194.717 19.3336V19.3589Z" stroke="#231815" stroke-width="0.504225" stroke-miterlimit="10"/>
<path d="M214.755 30.4653C275.693 20.8219 309.864 66.4998 309.864 109.305V319.434L119.62 378.5V168.371C119.62 125.566 137.747 42.6478 214.729 30.4909L214.755 30.4653Z" fill="#978BFF" stroke="#231815" stroke-width="0.504225" stroke-miterlimit="10"/>
<mask id="mask0_520_2476" style="mask-type:alpha" maskUnits="userSpaceOnUse" x="119" y="28" width="192" height="351">
<path d="M214.755 30.4653C275.693 20.8219 309.865 66.4998 309.865 109.305V319.434L119.621 378.5V168.371C119.621 125.566 137.748 42.6478 214.73 30.4909L214.755 30.4653Z" fill="#978BFF" stroke="#231815" stroke-width="0.504225" stroke-miterlimit="10"/>
</mask>
<g mask="url(#mask0_520_2476)">
<path d="M288.205 296.291C288.205 296.291 292.252 300.054 297.408 298.633C302.565 297.212 303.039 301.946 299.109 304.204C295.179 306.462 294.817 310.685 285.887 309.05C276.958 307.414 279.267 314.746 270.905 312.671C262.542 310.592 259.749 306.591 248.628 308.095C237.51 309.598 238.225 302.323 242.653 299.764C247.084 297.206 247.619 300.283 250.746 298.2C253.877 296.118 260.599 290.968 265.166 292.332C269.733 293.695 274.895 296.479 279.88 294.654C284.864 292.825 288.205 296.291 288.205 296.291Z" fill="white" stroke="#231815" stroke-width="0.504225" stroke-miterlimit="10"/>
<path d="M310.341 281.727C310.341 281.727 312.666 283.889 315.628 283.073C318.59 282.257 318.863 284.976 316.605 286.273C314.347 287.571 314.139 289.996 309.01 289.057C303.88 288.117 305.207 292.329 300.403 291.137C295.599 289.943 293.994 287.645 287.606 288.508C281.219 289.372 281.63 285.192 284.173 283.723C286.719 282.253 287.026 284.021 288.822 282.824C290.621 281.628 294.483 278.67 297.106 279.453C299.73 280.236 302.695 281.836 305.559 280.787C308.422 279.737 310.341 281.727 310.341 281.727Z" fill="white" stroke="#231815" stroke-width="0.504225" stroke-miterlimit="10"/>
</g>
<path d="M214.755 30.4653C275.693 20.8219 309.864 66.4998 309.864 109.305V319.434L119.62 378.5V168.371C119.62 125.566 137.747 42.6478 214.729 30.4909L214.755 30.4653Z" stroke="#231815" stroke-width="0.504225" stroke-miterlimit="10"/>
<path d="M226.194 168.653C223.634 148.57 229.965 150.13 223.301 134.333C214.986 118.643 197.766 105.451 181.469 112.176C181.03 112.358 179.455 112.115 178.986 112.13C162.81 112.358 146.938 125.928 143.409 152.75C139.88 179.573 110.15 168.85 88.4011 195.278C82.4641 202.503 81.1313 211.651 78.2537 225.721C75.376 239.791 66.3797 240.366 62.9114 249.681C59.428 259.01 64.6834 266.159 68.2729 269.945C71.8623 273.731 75.2246 270.93 77.1935 277.563C79.1624 284.197 65.2892 290.24 69.7117 305.976C74.1341 321.712 87.9315 328.936 100.896 322.045C106.591 319.016 145.439 288.831 151.936 285.605C158.433 282.379 165.249 283.879 165.249 283.879L205.157 219.148C220.999 205.411 228.799 188.736 226.224 168.653H226.194Z" fill="#111111"/>
<path d="M202.328 201.1C209.737 201.089 227.568 212.31 245.328 210.129C263.088 207.947 293.625 199.538 303.905 174.937C303.905 174.937 311.385 164.504 337.085 174.937C362.786 185.371 359.513 197.907 356.87 203.551C354.227 209.195 317.654 234.982 289.84 242.214C263.719 250.9 249.03 251.429 243.114 262.796C239.847 277.981 230.986 284.319 220.863 291.166C210.74 298.013 210.85 350.13 210.85 350.13L119.622 378.5V308.966C119.622 308.966 119.622 242.214 158.004 214.4C158.004 214.4 176.392 201.652 202.351 201.089L202.328 201.1Z" fill="#CCC6FF" stroke="#231516" stroke-width="0.504225" stroke-miterlimit="10"/>
<path d="M323.703 204.349C308.461 196.974 299.581 183.818 303.868 174.965C308.155 166.112 323.986 164.914 339.228 172.289C354.469 179.664 363.35 192.82 359.063 201.673C354.776 210.526 338.944 211.724 323.703 204.349Z" fill="#978BFF" stroke="#231815" stroke-width="0.504225" stroke-miterlimit="10"/>
<path d="M293.828 200.544L311.553 171.936C311.553 171.936 307.458 171.239 302.318 162.705C297.178 154.172 293.793 141.444 297.066 134.44L280.824 106.411C280.824 106.411 272.647 94.1443 279.306 87.4883C290.395 80.3399 296.231 90.2617 297.763 95.3136C299.295 100.366 304.271 122.616 314.315 122.616C324.359 122.616 356.644 116.912 358.399 137.475C358.399 137.475 360.03 144.019 354.428 149.618C354.428 149.618 361.199 163.279 340.639 179.401C340.639 179.401 318.359 198.542 322.678 208.594L319.877 213.844L299.081 213.26L309.101 206.149L293.828 200.544Z" fill="white" stroke="#231815" stroke-width="0.504225" stroke-miterlimit="10"/>
<path d="M352.796 149.753C352.796 149.753 342.977 155.24 332.933 152.62C322.889 149.989 319.616 138.543 319.616 138.543" fill="white"/>
<path d="M352.796 149.753C352.796 149.753 342.977 155.24 332.933 152.62C322.889 149.989 319.616 138.543 319.616 138.543" stroke="#231815" stroke-width="0.504225" stroke-miterlimit="10"/>
<path d="M308.64 142.422C308.64 142.422 323.824 147.887 329.673 147.662C335.522 147.437 338.548 153.969 329.673 157.938C320.799 161.907 310.744 160.974 310.744 160.974" fill="white"/>
<path d="M308.64 142.422C308.64 142.422 323.824 147.887 329.673 147.662C335.522 147.437 338.548 153.969 329.673 157.938C320.799 161.907 310.744 160.974 310.744 160.974" stroke="#231815" stroke-width="0.504225" stroke-miterlimit="10"/>
<path d="M341.505 149.134C341.505 149.134 348.816 140.994 334.656 128.885" stroke="#231815" stroke-width="0.504225" stroke-miterlimit="10"/>
<path d="M350.278 148.044C350.278 148.044 357.454 139.252 347.635 129.976L350.278 148.044Z" fill="white"/>
<path d="M350.278 148.044C350.278 148.044 357.454 139.252 347.635 129.976" stroke="#231815" stroke-width="0.504225" stroke-miterlimit="10"/>
<path d="M298.583 23.8858C292.123 23.8858 286.886 18.6507 286.886 12.1929C286.886 5.73509 292.123 0.5 298.583 0.5C305.044 0.5 310.281 5.73509 310.281 12.1929C310.281 18.6507 305.044 23.8858 298.583 23.8858Z" fill="#FFFCB3" stroke="black" stroke-width="0.504225" stroke-miterlimit="10"/>
<path d="M5.0432 187.063C2.25845 187.063 0.000957489 184.806 0.000957489 182.021C0.000957489 179.236 2.25845 176.979 5.0432 176.979C7.82796 176.979 10.0854 179.236 10.0854 182.021C10.0854 184.806 7.82796 187.063 5.0432 187.063Z" fill="#FFFCB3" fill-opacity="0.5" stroke="black" stroke-width="0.504225" stroke-miterlimit="10"/>
<path d="M308.076 192.387C308.076 192.387 314.769 201.887 330.673 207.138" stroke="#231815" stroke-width="0.504225" stroke-miterlimit="10"/>
<path d="M209.537 187.631V209.623C209.537 215.065 204.127 219.472 197.446 219.472C190.765 219.472 185.355 215.065 185.355 209.623V187.631H209.537Z" fill="white" stroke="#231815" stroke-width="0.504225" stroke-miterlimit="10"/>
<path d="M276.696 94.7289C276.696 88.9611 281.375 84.284 287.145 84.284C289.237 84.284 291.183 84.9024 292.825 85.9705C305.951 93.3685 322.62 88.8824 330.223 75.8291C337.691 62.9894 333.631 46.6194 321.202 38.7154C317.243 37.2313 314.42 33.4199 314.42 28.9451C314.42 23.1774 319.099 18.5002 324.869 18.5002C327.006 18.5002 328.997 19.1411 330.65 20.2429L330.684 20.1867C353.764 33.6111 361.581 63.1918 348.152 86.2515C335.003 108.85 306.344 116.799 283.489 104.499C279.519 103.015 276.696 99.2037 276.696 94.7289Z" fill="#FFFCB3" fill-opacity="0.5" stroke="black" stroke-width="0.504225" stroke-miterlimit="10"/>
<path d="M220.649 158.928C220.527 182.373 216.09 193.838 204.897 198.397C197.416 201.456 186.178 197.185 176.333 185.417C175.985 184.993 175.364 184.872 174.925 185.19C174.576 185.432 172.592 185.478 172.199 185.417C166.883 184.584 164.626 179.101 164.338 177.42C163.823 174.543 164.308 172.998 166.777 171.09C167.11 170.832 167.276 170.423 167.185 170.014C163.142 151.143 167.958 132.242 184.921 127.789C200.702 123.654 220.785 137.694 220.664 158.913L220.649 158.928Z" fill="white"/>
<path fill-rule="evenodd" clip-rule="evenodd" d="M220.631 158.943C220.752 137.725 200.67 123.685 184.888 127.82C167.925 132.272 163.109 151.174 167.153 170.045C167.244 170.454 167.077 170.863 166.744 171.12C164.275 173.029 163.791 174.573 164.306 177.451C164.593 179.132 166.85 184.615 172.166 185.448C172.56 185.508 174.544 185.463 174.892 185.221C175.332 184.903 175.952 185.024 176.301 185.448C186.145 197.216 197.383 201.487 204.865 198.427C216.057 193.869 220.495 182.404 220.616 158.959L220.631 158.943ZM220.076 158.712C220.05 137.963 200.377 124.337 185.029 128.358C176.75 130.531 171.431 136.22 168.665 143.718C165.892 151.234 165.691 160.564 167.697 169.927C167.837 170.564 167.571 171.184 167.084 171.56M220.076 158.712L220.061 158.727L220.06 158.956C219.999 170.657 218.86 179.301 216.375 185.57C213.902 191.81 210.098 195.695 204.655 197.912C201.093 199.369 196.573 199.104 191.69 196.987C186.811 194.873 181.608 190.924 176.729 185.093C176.228 184.485 175.301 184.262 174.594 184.75C174.585 184.754 174.569 184.759 174.544 184.766C174.483 184.783 174.398 184.8 174.29 184.817C174.073 184.851 173.799 184.876 173.514 184.893C172.924 184.927 172.384 184.918 172.251 184.898C169.779 184.51 168.002 183.042 166.795 181.434C165.58 179.815 164.982 178.106 164.854 177.357L164.853 177.353C164.603 175.953 164.613 174.964 164.928 174.116C165.241 173.27 165.889 172.485 167.084 171.56" fill="#121212"/>
<path d="M165.234 269.471C158.558 280.967 147.99 318.756 156.89 366.818" stroke="black" stroke-width="0.504225"/>
<path d="M323.775 204.388C334.455 209.728 344.172 209.58 347.695 208.838L310.421 226.082C300.779 221.261 281.94 210.173 283.72 204.388C285.5 198.602 292.249 194.56 295.401 193.262L299.295 186.031L303.189 176.574C301.52 187.7 310.425 197.712 323.775 204.388Z" fill="#CCC6FF"/>
<path d="M347.694 208.838C344.171 209.58 334.455 209.728 323.775 204.388C310.424 197.712 301.52 187.7 303.188 176.574" stroke="black" stroke-width="0.504225"/>
<mask id="path-28-inside-1_520_2476" fill="white">
<path fill-rule="evenodd" clip-rule="evenodd" d="M47.2029 212.518C45.7596 216.479 45.357 220.782 46.09 225.008C47.1928 231.366 50.776 237.025 56.0514 240.74C61.3267 244.456 67.8621 245.924 74.2197 244.821C79.0811 243.978 83.534 241.684 87.022 238.293C88.8118 236.553 88.2978 233.694 86.2569 232.257C84.216 230.819 81.424 231.38 79.4542 232.914C77.4924 234.441 75.1691 235.482 72.6747 235.914C68.6793 236.607 64.5722 235.685 61.257 233.35C57.9418 231.015 55.6899 227.458 54.9969 223.463C54.5642 220.968 54.7612 218.43 55.5385 216.069C55.6294 215.793 55.704 215.511 55.7619 215.225C57.2052 211.265 57.6078 206.961 56.8748 202.736C55.772 196.378 52.1887 190.719 46.9134 187.003C41.638 183.288 35.1027 181.82 28.7451 182.923C23.8837 183.766 19.4307 186.059 15.9428 189.451C14.153 191.191 14.667 194.049 16.7079 195.487C18.7488 196.924 21.5408 196.363 23.5106 194.83C25.4724 193.302 27.7957 192.262 30.2901 191.83C34.2855 191.136 38.3925 192.059 41.7078 194.394C45.023 196.729 47.2748 200.286 47.9679 204.281C48.4006 206.775 48.2036 209.313 47.4263 211.675C47.3354 211.951 47.2607 212.233 47.2029 212.518Z"/>
</mask>
<path fill-rule="evenodd" clip-rule="evenodd" d="M47.2029 212.518C45.7596 216.479 45.357 220.782 46.09 225.008C47.1928 231.366 50.776 237.025 56.0514 240.74C61.3267 244.456 67.8621 245.924 74.2197 244.821C79.0811 243.978 83.534 241.684 87.022 238.293C88.8118 236.553 88.2978 233.694 86.2569 232.257C84.216 230.819 81.424 231.38 79.4542 232.914C77.4924 234.441 75.1691 235.482 72.6747 235.914C68.6793 236.607 64.5722 235.685 61.257 233.35C57.9418 231.015 55.6899 227.458 54.9969 223.463C54.5642 220.968 54.7612 218.43 55.5385 216.069C55.6294 215.793 55.704 215.511 55.7619 215.225C57.2052 211.265 57.6078 206.961 56.8748 202.736C55.772 196.378 52.1887 190.719 46.9134 187.003C41.638 183.288 35.1027 181.82 28.7451 182.923C23.8837 183.766 19.4307 186.059 15.9428 189.451C14.153 191.191 14.667 194.049 16.7079 195.487C18.7488 196.924 21.5408 196.363 23.5106 194.83C25.4724 193.302 27.7957 192.262 30.2901 191.83C34.2855 191.136 38.3925 192.059 41.7078 194.394C45.023 196.729 47.2748 200.286 47.9679 204.281C48.4006 206.775 48.2036 209.313 47.4263 211.675C47.3354 211.951 47.2607 212.233 47.2029 212.518Z" fill="#FFFCB3"/>
<path d="M46.09 225.008L45.5932 225.094L46.09 225.008ZM47.2029 212.518L47.6766 212.691L47.6895 212.655L47.697 212.618L47.2029 212.518ZM74.2197 244.821L74.3059 245.318L74.3059 245.318L74.2197 244.821ZM87.022 238.293L87.3735 238.654L87.022 238.293ZM79.4542 232.914L79.1444 232.516L79.4542 232.914ZM72.6747 235.914L72.5885 235.417L72.5885 235.417L72.6747 235.914ZM61.257 233.35L61.5474 232.937L61.257 233.35ZM55.5385 216.069L56.0174 216.227L56.0174 216.227L55.5385 216.069ZM55.7619 215.225L55.2882 215.053L55.2752 215.088L55.2677 215.125L55.7619 215.225ZM56.8748 202.736L56.378 202.822L56.8748 202.736ZM28.7451 182.923L28.6589 182.426L28.7451 182.923ZM15.9428 189.451L16.2943 189.812L15.9428 189.451ZM23.5106 194.83L23.8203 195.228L23.5106 194.83ZM30.2901 191.83L30.2039 191.333L30.2901 191.83ZM47.9679 204.281L48.4647 204.195L47.9679 204.281ZM47.4263 211.675L46.9473 211.517L46.9473 211.517L47.4263 211.675ZM46.5868 224.922C45.869 220.784 46.2632 216.569 47.6766 212.691L46.7291 212.346C45.2559 216.388 44.845 220.781 45.5932 225.094L46.5868 224.922ZM56.3417 240.328C51.1757 236.689 47.6668 231.148 46.5868 224.922L45.5932 225.094C46.7189 231.583 50.3763 237.36 55.761 241.153L56.3417 240.328ZM74.1335 244.324C67.9077 245.404 61.5078 243.967 56.3417 240.328L55.761 241.153C61.1457 244.945 67.8165 246.444 74.3059 245.318L74.1335 244.324ZM86.6705 237.931C83.2548 241.252 78.8941 243.498 74.1335 244.324L74.3059 245.318C79.268 244.457 83.8133 242.116 87.3735 238.654L86.6705 237.931ZM85.9665 232.669C87.8057 233.965 88.1869 236.457 86.6705 237.931L87.3735 238.654C89.4367 236.648 88.7898 233.424 86.5472 231.845L85.9665 232.669ZM79.7639 233.312C81.6307 231.859 84.1721 231.405 85.9665 232.669L86.5472 231.845C84.2599 230.234 81.2172 230.902 79.1444 232.516L79.7639 233.312ZM72.7608 236.411C75.3375 235.964 77.7375 234.889 79.7639 233.312L79.1444 232.516C77.2473 233.993 75.0006 234.999 72.5885 235.417L72.7608 236.411ZM60.9666 233.762C64.3912 236.174 68.6337 237.127 72.7609 236.411L72.5885 235.417C68.7249 236.088 64.7533 235.196 61.5474 232.937L60.9666 233.762ZM54.5001 223.549C55.216 227.676 57.5421 231.35 60.9666 233.762L61.5474 232.937C58.3415 230.679 56.1639 227.24 55.4937 223.377L54.5001 223.549ZM55.0595 215.911C54.2566 218.351 54.0531 220.972 54.5001 223.549L55.4937 223.377C55.0752 220.965 55.2657 218.51 56.0174 216.227L55.0595 215.911ZM55.2677 215.125C55.2138 215.391 55.1442 215.654 55.0595 215.911L56.0174 216.227C56.1145 215.932 56.1943 215.63 56.2561 215.326L55.2677 215.125ZM56.2356 215.398C57.7088 211.356 58.1198 206.963 57.3716 202.65L56.378 202.822C57.0958 206.96 56.7016 211.175 55.2882 215.053L56.2356 215.398ZM57.3716 202.65C56.2459 196.16 52.5884 190.384 47.2037 186.591L46.623 187.416C51.7891 191.054 55.298 196.596 56.378 202.822L57.3716 202.65ZM47.2037 186.591C41.8191 182.798 35.1483 181.3 28.6589 182.426L28.8312 183.419C35.0571 182.339 41.457 183.777 46.623 187.416L47.2037 186.591ZM28.6589 182.426C23.6967 183.287 19.1515 185.628 15.5913 189.089L16.2943 189.812C19.71 186.491 24.0706 184.245 28.8312 183.419L28.6589 182.426ZM15.5913 189.089C13.5281 191.095 14.175 194.32 16.4175 195.899L16.9982 195.075C15.1591 193.779 14.7779 191.287 16.2943 189.812L15.5913 189.089ZM16.4175 195.899C18.7049 197.51 21.7476 196.841 23.8203 195.228L23.2008 194.432C21.334 195.885 18.7926 196.338 16.9982 195.075L16.4175 195.899ZM23.8203 195.228C25.7175 193.751 27.9642 192.745 30.3763 192.326L30.2039 191.333C27.6273 191.78 25.2273 192.854 23.2008 194.432L23.8203 195.228ZM30.3763 192.326C34.2399 191.656 38.2115 192.548 41.4174 194.806L41.9981 193.982C38.5736 191.57 34.3311 190.617 30.2039 191.333L30.3763 192.326ZM41.4174 194.806C44.6233 197.064 46.8009 200.503 47.4711 204.367L48.4647 204.195C47.7488 200.068 45.4227 196.394 41.9981 193.982L41.4174 194.806ZM47.4711 204.367C47.8895 206.779 47.699 209.233 46.9473 211.517L47.9052 211.832C48.7082 209.393 48.9117 206.771 48.4647 204.195L47.4711 204.367ZM46.9473 211.517C46.8502 211.812 46.7705 212.113 46.7087 212.418L47.697 212.618C47.751 212.353 47.8206 212.09 47.9052 211.832L46.9473 211.517Z" fill="black" mask="url(#path-28-inside-1_520_2476)"/>
<mask id="path-30-inside-2_520_2476" fill="white">
<path fill-rule="evenodd" clip-rule="evenodd" d="M324.378 295.676C320.677 293.659 316.481 292.621 312.194 292.717C305.743 292.861 299.614 295.562 295.154 300.225C290.695 304.889 288.27 311.133 288.414 317.584C288.525 322.517 290.13 327.261 292.964 331.215C294.419 333.244 297.322 333.161 299.047 331.357C300.772 329.553 300.633 326.708 299.41 324.532C298.191 322.365 297.509 319.913 297.452 317.382C297.361 313.328 298.885 309.404 301.688 306.473C304.49 303.542 308.342 301.845 312.396 301.754C314.927 301.698 317.407 302.27 319.627 303.391C319.887 303.522 320.155 303.638 320.428 303.737C324.13 305.754 328.325 306.792 332.612 306.696C339.063 306.552 345.193 303.851 349.652 299.188C354.112 294.524 356.536 288.28 356.392 281.829C356.282 276.897 354.677 272.152 351.842 268.198C350.388 266.169 347.485 266.252 345.76 268.056C344.034 269.86 344.174 272.705 345.397 274.881C346.615 277.048 347.298 279.5 347.355 282.031C347.445 286.085 345.922 290.009 343.119 292.94C340.317 295.871 336.465 297.568 332.41 297.659C329.879 297.715 327.399 297.143 325.18 296.023C324.92 295.892 324.652 295.776 324.378 295.676Z"/>
</mask>
<path fill-rule="evenodd" clip-rule="evenodd" d="M324.378 295.676C320.677 293.659 316.481 292.621 312.194 292.717C305.743 292.861 299.614 295.562 295.154 300.225C290.695 304.889 288.27 311.133 288.414 317.584C288.525 322.517 290.13 327.261 292.964 331.215C294.419 333.244 297.322 333.161 299.047 331.357C300.772 329.553 300.633 326.708 299.41 324.532C298.191 322.365 297.509 319.913 297.452 317.382C297.361 313.328 298.885 309.404 301.688 306.473C304.49 303.542 308.342 301.845 312.396 301.754C314.927 301.698 317.407 302.27 319.627 303.391C319.887 303.522 320.155 303.638 320.428 303.737C324.13 305.754 328.325 306.792 332.612 306.696C339.063 306.552 345.193 303.851 349.652 299.188C354.112 294.524 356.536 288.28 356.392 281.829C356.282 276.897 354.677 272.152 351.842 268.198C350.388 266.169 347.485 266.252 345.76 268.056C344.034 269.86 344.174 272.705 345.397 274.881C346.615 277.048 347.298 279.5 347.355 282.031C347.445 286.085 345.922 290.009 343.119 292.94C340.317 295.871 336.465 297.568 332.41 297.659C329.879 297.715 327.399 297.143 325.18 296.023C324.92 295.892 324.652 295.776 324.378 295.676Z" fill="#FFFEDD"/>
<path d="M312.194 292.717L312.205 293.221L312.194 292.717ZM324.378 295.676L324.137 296.119L324.17 296.137L324.205 296.15L324.378 295.676ZM288.414 317.584L288.918 317.573L288.918 317.573L288.414 317.584ZM292.964 331.215L292.554 331.509L292.964 331.215ZM299.41 324.532L299.849 324.285L299.41 324.532ZM297.452 317.382L296.948 317.393L297.452 317.382ZM312.396 301.754L312.407 302.258L312.396 301.754ZM319.627 303.391L319.4 303.841L319.4 303.841L319.627 303.391ZM320.428 303.737L320.67 303.294L320.637 303.276L320.601 303.264L320.428 303.737ZM332.612 306.696L332.601 306.192L332.612 306.696ZM356.392 281.829L356.896 281.818L356.392 281.829ZM351.842 268.198L351.433 268.492L351.842 268.198ZM345.397 274.881L344.957 275.128L345.397 274.881ZM347.355 282.031L347.859 282.02L347.355 282.031ZM332.41 297.659L332.422 298.163L332.41 297.659ZM325.18 296.023L325.407 295.572L325.407 295.572L325.18 296.023ZM312.205 293.221C316.404 293.127 320.512 294.144 324.137 296.119L324.619 295.233C320.841 293.175 316.559 292.115 312.183 292.213L312.205 293.221ZM295.518 300.574C299.886 296.007 305.888 293.362 312.205 293.221L312.183 292.213C305.598 292.36 299.342 295.117 294.79 299.877L295.518 300.574ZM288.918 317.573C288.777 311.255 291.151 305.141 295.518 300.574L294.79 299.877C290.238 304.637 287.763 311.01 287.91 317.595L288.918 317.573ZM293.374 330.921C290.598 327.049 289.026 322.403 288.918 317.573L287.91 317.595C288.023 322.63 289.661 327.473 292.554 331.509L293.374 330.921ZM298.682 331.009C297.128 332.634 294.606 332.64 293.374 330.921L292.554 331.509C294.231 333.848 297.516 333.688 299.411 331.706L298.682 331.009ZM298.97 324.779C300.129 326.842 300.199 329.422 298.682 331.009L299.411 331.706C301.345 329.684 301.136 326.575 299.849 324.285L298.97 324.779ZM296.948 317.393C297.006 320.008 297.712 322.541 298.97 324.779L299.849 324.285C298.671 322.189 298.011 319.818 297.956 317.371L296.948 317.393ZM301.323 306.125C298.428 309.152 296.854 313.205 296.948 317.393L297.956 317.371C297.868 313.45 299.342 309.656 302.052 306.822L301.323 306.125ZM312.385 301.25C308.197 301.344 304.218 303.097 301.323 306.125L302.052 306.822C304.762 303.987 308.487 302.346 312.407 302.258L312.385 301.25ZM319.854 302.94C317.561 301.783 314.999 301.192 312.385 301.25L312.407 302.258C314.855 302.204 317.253 302.757 319.4 303.841L319.854 302.94ZM320.601 303.264C320.346 303.171 320.096 303.062 319.854 302.94L319.4 303.841C319.677 303.981 319.964 304.105 320.256 304.211L320.601 303.264ZM320.187 304.18C323.965 306.238 328.248 307.298 332.624 307.201L332.601 306.192C328.403 306.286 324.294 305.269 320.67 303.294L320.187 304.18ZM332.624 307.201C339.208 307.053 345.465 304.296 350.017 299.536L349.288 298.839C344.921 303.406 338.918 306.051 332.601 306.192L332.624 307.201ZM350.017 299.536C354.569 294.776 357.043 288.403 356.896 281.818L355.888 281.841C356.029 288.158 353.655 294.273 349.288 298.839L350.017 299.536ZM356.896 281.818C356.784 276.783 355.145 271.94 352.252 267.904L351.433 268.492C354.208 272.364 355.78 277.01 355.888 281.841L356.896 281.818ZM352.252 267.904C350.576 265.565 347.291 265.725 345.395 267.708L346.124 268.405C347.679 266.779 350.2 266.773 351.433 268.492L352.252 267.904ZM345.395 267.708C343.462 269.73 343.67 272.838 344.957 275.128L345.836 274.634C344.677 272.571 344.607 269.991 346.124 268.405L345.395 267.708ZM344.957 275.128C346.135 277.224 346.796 279.595 346.85 282.043L347.859 282.02C347.8 279.406 347.095 276.872 345.836 274.634L344.957 275.128ZM346.85 282.043C346.938 285.963 345.465 289.758 342.755 292.592L343.483 293.289C346.378 290.261 347.952 286.208 347.859 282.02L346.85 282.043ZM342.755 292.592C340.045 295.426 336.32 297.067 332.399 297.155L332.422 298.163C336.609 298.069 340.588 296.316 343.483 293.289L342.755 292.592ZM332.399 297.155C329.952 297.209 327.553 296.656 325.407 295.572L324.952 296.473C327.245 297.63 329.807 298.221 332.422 298.163L332.399 297.155ZM325.407 295.572C325.129 295.432 324.843 295.309 324.551 295.202L324.205 296.15C324.461 296.243 324.71 296.351 324.952 296.473L325.407 295.572Z" fill="black" mask="url(#path-30-inside-2_520_2476)"/>
<path d="M467.628 204.879C449.759 202.068 439.719 215.4 439.719 227.905V289.271L495.524 306.517V245.151C495.524 232.646 490.207 208.439 467.615 204.879H467.628Z" stroke="#231815" stroke-width="0.525862" stroke-miterlimit="10"/>
<path d="M458.473 204.879C440.882 202.068 431 215.4 431 227.905V289.271L485.932 306.517V245.151C485.932 232.646 480.698 208.439 458.46 204.879H458.473Z" fill="#CCC6FF" stroke="#231815" stroke-width="0.525862" stroke-miterlimit="10"/>
<path d="M514.489 256.879C514.489 256.879 520.919 253.319 524.912 255.218C528.904 257.116 529.881 252.945 526.986 250.446C524.091 247.948 524.345 244.139 516.926 244.513C509.508 244.888 512.306 238.618 505.286 239.455C498.265 240.292 495.503 243.527 486.721 240.829C477.94 238.131 477.59 244.713 480.847 247.536C484.104 250.359 484.924 247.673 487.18 249.922C489.436 252.17 494.212 257.579 498.072 256.917C501.932 256.255 506.456 254.393 510.243 256.629C514.031 258.865 514.477 256.867 514.477 256.867L514.489 256.879Z" fill="white" stroke="#231815" stroke-width="0.525862" stroke-miterlimit="10"/>
<path d="M401.606 195.676C409.685 194.375 414.212 200.528 414.212 206.282V234.569L389 242.516V214.23C389 208.466 391.399 197.309 401.606 195.666V195.676Z" stroke="#231815" stroke-width="0.525862" stroke-miterlimit="10"/>
<path d="M403.991 197.039C412.288 195.738 416.937 201.891 416.937 207.645V235.932L391.044 243.879V215.593C391.044 209.829 393.508 198.672 403.991 197.029V197.039Z" fill="#F3F1FF" stroke="#231815" stroke-width="0.525862" stroke-miterlimit="10"/>
<path d="M45.0334 118.107C45.0334 118.107 35.5943 108.68 23.4071 112.059C11.22 115.437 10.2233 103.703 19.5429 98.2177C28.8625 92.7328 29.8242 82.2874 50.8238 86.5773C71.8235 90.8672 66.5692 72.6502 86.2225 78.0147C105.876 83.3878 112.354 93.3689 138.599 89.9473C164.836 86.5257 162.965 104.519 152.465 110.735C141.956 116.951 140.776 109.316 133.354 114.389C125.923 119.461 109.95 132.03 99.2227 128.531C88.4956 125.032 76.4046 117.999 64.6109 122.384C52.8172 126.777 45.0334 118.107 45.0334 118.107Z" fill="white" stroke="#231815" stroke-width="0.441749" stroke-miterlimit="10"/>
<path d="M12.4376 74.2977C12.4376 74.2977 7.08492 70.0513 3.21145 71.1986C-0.662014 72.3459 -0.981682 68.3568 1.98296 66.4908C4.94761 64.6248 5.25473 61.0642 11.9361 62.528C18.6176 63.9918 16.9441 57.7871 23.1993 59.6136C29.4545 61.44 31.5166 64.8423 39.8652 63.6753C48.2139 62.5082 47.6184 68.6337 44.2777 70.7503C40.937 72.8668 40.5609 70.2689 38.198 71.9965C35.8351 73.724 30.7519 78.0033 27.336 76.8099C23.9201 75.6164 18.2385 73.8776 16.3236 74.7197C14.4086 75.5618 12.4438 74.3043 12.4438 74.3043L12.4376 74.2977Z" fill="white" stroke="#231815" stroke-width="0.441749" stroke-miterlimit="10"/>
</g>
<defs>
<clipPath id="clip0_520_2476">
<rect width="510" height="378" fill="white" transform="matrix(-1 0 0 1 510 0.5)"/>
</clipPath>
</defs>
</svg>
