<svg width="24" height="24" viewBox="0 0 24 24" fill="none" xmlns="http://www.w3.org/2000/svg">
<circle cx="12" cy="12" r="8" fill="#A1A6B5"/>
<path fill-rule="evenodd" clip-rule="evenodd" d="M14.8245 14.1419C15.0193 14.3376 15.0193 14.6549 14.8245 14.8506C14.6297 15.0463 14.3138 15.0463 14.119 14.8506L11.9965 12.7186L9.87408 14.8506C9.67925 15.0463 9.36338 15.0463 9.16855 14.8506C8.97372 14.6549 8.97372 14.3376 9.16855 14.1419L11.291 12.0099L9.14612 9.85546C8.95129 9.65976 8.95129 9.34247 9.14612 9.14677C9.34094 8.95108 9.65682 8.95108 9.85165 9.14677L11.9965 11.3013L14.1414 9.14677C14.3362 8.95108 14.6521 8.95108 14.8469 9.14677C15.0418 9.34247 15.0418 9.65976 14.8469 9.85546L12.7021 12.0099L14.8245 14.1419Z" fill="white"/>
</svg>
