<svg width="24" height="24" viewBox="0 0 24 24" fill="none" xmlns="http://www.w3.org/2000/svg">
<path d="M4 11C5.21618 12.7284 8.4825 15.1481 11.8183 15.1481C15.1541 15.1481 18.4205 12.7284 19.6366 11" stroke="#171D24" stroke-linecap="round"/>
<path d="M12.3184 15.6666V15.1666H11.3184V15.6666H12.3184ZM11.3184 17.9999C11.3184 18.2761 11.5422 18.4999 11.8184 18.4999C12.0945 18.4999 12.3184 18.2761 12.3184 17.9999H11.3184ZM11.3184 15.6666V17.9999H12.3184V15.6666H11.3184Z" fill="#171D24"/>
<path d="M18.8547 12.5556L19.9999 14.1313" stroke="#171D24" stroke-linecap="round"/>
<path d="M5.14526 12.5556L4.00007 14.1313" stroke="#171D24" stroke-linecap="round"/>
<path d="M7.43728 14.6928L7.63511 14.2336L8.55499 14.6258L8.35716 15.085L7.43728 14.6928ZM7.58719 16.8722C7.47793 17.1258 7.18344 17.2436 6.92942 17.1353C6.6754 17.027 6.55805 16.7336 6.66731 16.48L7.58719 16.8722ZM8.35716 15.085L7.58719 16.8722L6.66731 16.48L7.43728 14.6928L8.35716 15.085Z" fill="#171D24"/>
<path d="M16.1875 14.6928L15.9896 14.2336L15.0698 14.6258L15.2676 15.085L16.1875 14.6928ZM16.0376 16.8722C16.1468 17.1258 16.4413 17.2436 16.6953 17.1353C16.9494 17.027 17.0667 16.7336 16.9574 16.48L16.0376 16.8722ZM15.2676 15.085L16.0376 16.8722L16.9574 16.48L16.1875 14.6928L15.2676 15.085Z" fill="#171D24"/>
</svg>
