<svg width="28" height="28" viewBox="0 0 28 28" fill="none" xmlns="http://www.w3.org/2000/svg">
<path d="M13.4772 11.3649V16.4469C13.4772 17.5125 14.2163 18.434 15.256 18.6644L26.2212 21.0982C27.2608 21.3285 28 22.25 28 23.3157V24.9963C28 26.6558 26.6547 28.001 24.9953 28.001H3.00472C1.34526 28.001 0 26.6558 0 24.9963V3.00374C0 1.34428 1.34526 -0.000976562 3.00472 -0.000976562H24.9953C26.6547 -0.000976562 28 1.34428 28 3.00375V5.22724C28 6.347 27.1827 7.3005 26.075 7.47277L15.4022 9.11936C14.2945 9.28962 13.4772 10.2431 13.4772 11.3649Z" fill="url(#paint0_linear_535_233)"/>
<path d="M16.1354 11.2167H16.1334C15.5205 11.2167 15.0237 11.7135 15.0237 12.3264V15.8019C15.0237 16.4148 15.5205 16.9116 16.1334 16.9116H16.1354C16.7483 16.9116 17.2452 16.4148 17.2452 15.8019V12.3264C17.2452 11.7135 16.7483 11.2167 16.1354 11.2167Z" fill="#8273FF"/>
<defs>
<linearGradient id="paint0_linear_535_233" x1="28" y1="2.47597e-05" x2="-3.58062e-08" y2="28" gradientUnits="userSpaceOnUse">
<stop stop-color="#8273FF"/>
<stop offset="1" stop-color="#5945FF"/>
</linearGradient>
</defs>
</svg>
