<svg width="60" height="20" viewBox="0 0 60 20" fill="none" xmlns="http://www.w3.org/2000/svg">
<g clip-path="url(#clip0_535_7)">
<path d="M19.0602 9.5486C19.0602 10.0296 18.932 10.4133 18.6727 10.6983C18.4149 10.9832 18.0672 11.1257 17.627 11.1257H1.43318C0.992972 11.1257 0.64536 10.9832 0.387501 10.6983C0.128217 10.4133 0 10.0296 0 9.5486V1.57709C0 1.09606 0.128217 0.713782 0.387501 0.427423C0.643936 0.142474 0.991547 0 1.43318 0H17.627C18.0672 0 18.4149 0.142474 18.6727 0.427423C18.932 0.713782 19.0602 1.09606 19.0602 1.57709V3.53647C19.0602 4.01608 18.932 4.41388 18.6727 4.72986C18.4149 5.04444 18.0744 5.21794 17.6484 5.24757C15.9217 5.41402 14.2449 5.48455 12.6223 5.46198C10.9996 5.43941 9.29291 5.32374 7.50356 5.11215V6.01354C9.29148 6.22373 10.9982 6.3394 12.6223 6.36338C14.2435 6.38595 15.9203 6.31542 17.6484 6.14896C18.0886 6.11934 18.4334 6.23219 18.6855 6.48752C18.9348 6.74284 19.0588 7.11102 19.0588 7.59063V9.55001L19.0602 9.5486ZM19.0602 15.4493C19.0602 15.9303 18.932 16.314 18.6727 16.599C18.4149 16.8839 18.0672 17.0264 17.627 17.0264H13.3289V18.4215C13.3289 18.9025 13.1993 19.2848 12.9414 19.5712C12.6821 19.8561 12.3345 19.9986 11.8957 19.9986H7.1645C6.72429 19.9986 6.37667 19.8561 6.11739 19.5712C5.85953 19.2848 5.73274 18.9025 5.73274 18.4215V17.0264H1.43318C0.992972 17.0264 0.64536 16.8839 0.387501 16.599C0.128217 16.314 0 15.9303 0 15.4493V13.3559C0 12.8763 0.128217 12.4926 0.387501 12.2062C0.64536 11.9213 0.992972 11.7788 1.43318 11.7788H17.627C18.0672 11.7788 18.4149 11.9213 18.6727 12.2062C18.932 12.4926 19.0602 12.8749 19.0602 13.3559V15.4493Z" fill="#8273FF"/>
<path d="M39.5309 18.4228C39.5309 18.9039 39.4027 19.2862 39.1434 19.5725C38.8856 19.8575 38.5379 19.9999 38.0977 19.9999H21.9039C21.4637 19.9999 21.1161 19.8575 20.8582 19.5725C20.5989 19.2862 20.4707 18.9039 20.4707 18.4228V15.6749C20.4707 15.1953 20.5989 14.8116 20.8582 14.5267C21.1161 14.2417 21.4637 14.0992 21.9039 14.0992H38.0977C38.5379 14.0992 38.8856 14.2417 39.1434 14.5267C39.4027 14.8116 39.5309 15.1953 39.5309 15.6749V18.4228Z" fill="#8273FF"/>
<path d="M52.744 9.81944C52.744 10.3005 52.6158 10.6842 52.3593 10.9691C52.1001 11.2541 51.7524 11.3965 51.3122 11.3965H42.3741C41.9339 11.3965 41.5862 11.2541 41.3284 10.9691C41.0691 10.6842 40.9409 10.3005 40.9409 9.81944V5.76668C40.9409 5.28706 41.0691 4.88785 41.3284 4.57328C41.5862 4.25871 41.9267 4.0852 42.3527 4.05558C43.0194 4.02596 43.6705 4.02172 44.3087 4.04429C44.9455 4.06686 45.6051 4.11624 46.2875 4.18959V3.64932C45.6051 3.57455 44.9455 3.52518 44.3087 3.50261C43.6705 3.48004 43.018 3.48286 42.3527 3.51389C41.9125 3.54352 41.5677 3.42785 41.3184 3.16406C41.0691 2.90168 40.9423 2.53773 40.9423 2.07222V1.57709C40.9423 1.09606 41.0705 0.713782 41.3298 0.427423C41.5877 0.142474 41.9353 0 42.3755 0H51.3137C51.7539 0 52.1015 0.142474 52.3608 0.427423C52.6186 0.713782 52.7454 1.09606 52.7454 1.57709V5.62985C52.7454 6.11088 52.6144 6.50868 52.3479 6.82325C52.083 7.13782 51.7396 7.31133 51.3137 7.34095C50.0543 7.40161 48.745 7.35647 47.3788 7.20694V7.74721C48.745 7.89815 50.0557 7.94329 51.3137 7.88264C51.7539 7.85301 52.1015 7.96868 52.3608 8.23247C52.6186 8.49485 52.7454 8.8588 52.7454 9.3243V9.81944H52.744ZM59.9997 18.4229C59.9997 18.9039 59.8715 19.2862 59.6122 19.5726C59.3543 19.8575 59.0067 20 58.5665 20H42.3726C41.9324 20 41.5848 19.8575 41.327 19.5726C41.0677 19.2862 40.9395 18.9039 40.9395 18.4229V13.5139C40.9395 13.0343 41.0677 12.6506 41.327 12.3642C41.5848 12.0793 41.9324 11.9368 42.3726 11.9368H58.5665C59.0067 11.9368 59.3543 12.0793 59.6122 12.3642C59.8715 12.6506 59.9997 13.0329 59.9997 13.5139V18.4229ZM53.8367 15.6976C52.744 15.9219 51.6228 16.0347 50.4717 16.0347C49.3206 16.0347 48.1966 15.9219 47.1053 15.6976V16.2378C48.198 16.4621 49.3192 16.575 50.4717 16.575C51.6242 16.575 52.7454 16.4621 53.8367 16.2378V15.6976ZM59.9997 9.81944C59.9997 10.3005 59.8715 10.6842 59.6122 10.9691C59.3543 11.2541 59.0067 11.3965 58.5665 11.3965H54.8596C54.4194 11.3965 54.0718 11.2541 53.8139 10.9691C53.556 10.6842 53.4264 10.3005 53.4264 9.81944V1.57709C53.4264 1.09606 53.556 0.713782 53.8139 0.427423C54.0718 0.142474 54.4194 0 54.8596 0H58.5665C59.0067 0 59.3543 0.142474 59.6122 0.427423C59.8715 0.713782 59.9997 1.09606 59.9997 1.57709V9.81944Z" fill="#8273FF"/>
<path d="M30.1544 8.11539C30.1544 8.51319 30.4365 8.85456 30.8297 8.93356L38.3418 10.2497C39.0228 10.3273 39.5371 10.8986 39.5371 11.5785C39.5371 12.0482 39.4046 12.4418 39.1396 12.7239C38.8931 13.0061 38.5327 13.1556 38.0968 13.1556H21.91C21.4556 13.1556 21.1137 13.0061 20.8672 12.7239C20.6022 12.4418 20.4697 12.0482 20.4697 11.5785V1.57709C20.4697 1.08901 20.6022 0.713782 20.8672 0.431655C21.1137 0.149527 21.4556 0 21.91 0H38.0968C38.5327 0 38.8931 0.149527 39.1396 0.431655C39.4046 0.713782 39.5371 1.08901 39.5371 1.57709V1.83242C39.5371 2.52927 38.9971 3.10904 38.2962 3.16547L30.8069 4.46184C30.4137 4.54084 30.1316 4.88362 30.1316 5.28001L30.1544 8.11539Z" fill="#8273FF"/>
<path d="M31.9139 5.46057H31.9125C31.634 5.46057 31.4082 5.68414 31.4082 5.95994V7.49753C31.4082 7.77332 31.634 7.9969 31.9125 7.9969H31.9139C32.1925 7.9969 32.4183 7.77332 32.4183 7.49753V5.95994C32.4183 5.68414 32.1925 5.46057 31.9139 5.46057Z" fill="#8273FF"/>
</g>
<defs>
<clipPath id="clip0_535_7">
<rect width="60" height="20" fill="white"/>
</clipPath>
</defs>
</svg>
