<svg xmlns="http://www.w3.org/2000/svg" width="46" height="46" viewBox="0 0 46 46" fill="none">
  <path d="M5.14445 39.4309L6.29575 36.4274L6.5372 35.7975C6.80659 35.0947 7.71043 34.9024 8.24263 35.4345L10.5649 37.7569C11.0971 38.2891 10.9048 39.1929 10.202 39.4623L9.5721 39.7037C8.75729 39.9354 7.58161 40.3789 6.54326 40.7931C5.68797 41.1342 4.81488 40.2907 5.14445 39.4309Z" fill="#29323C"/>
  <rect width="12.047" height="32.2198" transform="matrix(0.707107 0.707107 0.707107 -0.707107 9.55371 27.9287)" fill="#FAC749"/>
  <path d="M34.5427 2.93923C36.1663 1.31567 38.7986 1.31567 40.4221 2.93924L43.0612 5.5783C44.6848 7.20187 44.6848 9.83419 43.0612 11.4578L40.8564 13.6625L32.3379 5.14403L34.5427 2.93923Z" fill="#4F469C"/>
  <path d="M18.0728 36.4452L9.55425 27.9267L6.29589 36.4272L9.57224 39.7036L18.0728 36.4452Z" fill="#FFD79A"/>
</svg>